<?xml version="1.0" encoding="UTF-8"?>
<svg xmlns="http://www.w3.org/2000/svg" width="400" height="160" viewBox="0 0 400 160" role="img" aria-labelledby="logo-title logo-desc">
  <title id="logo-title">Aktonz</title>
  <desc id="logo-desc">Aktonz wordmark in yellow on a blue gradient background</desc>
  <defs>
    <linearGradient id="bg" x1="0%" y1="0%" x2="0%" y2="100%">
      <stop offset="0%" stop-color="#0082ff" />
      <stop offset="100%" stop-color="#005ad2" />
    </linearGradient>
    <radialGradient id="highlight" cx="50%" cy="50%" r="50%">
      <stop offset="0%" stop-color="#ffffff" stop-opacity="0.7" />
      <stop offset="100%" stop-color="#ffffff" stop-opacity="0" />
    </radialGradient>
  </defs>
  <rect width="100%" height="100%" fill="url(#bg)" rx="24" />
  <circle cx="200" cy="28" r="36" fill="url(#highlight)" opacity="0.45" />
  <rect x="29" y="38" width="12" height="12" rx="2.16" ry="2.16" fill="#ffe500" />
  <rect x="17" y="50" width="12" height="12" rx="2.16" ry="2.16" fill="#ffe500" />
  <rect x="41" y="50" width="12" height="12" rx="2.16" ry="2.16" fill="#ffe500" />
  <rect x="5" y="62" width="12" height="12" rx="2.16" ry="2.16" fill="#ffe500" />
  <rect x="53" y="62" width="12" height="12" rx="2.16" ry="2.16" fill="#ffe500" />
  <rect x="5" y="74" width="12" height="12" rx="2.16" ry="2.16" fill="#ffe500" />
  <rect x="17" y="74" width="12" height="12" rx="2.16" ry="2.16" fill="#ffe500" />
  <rect x="29" y="74" width="12" height="12" rx="2.16" ry="2.16" fill="#ffe500" />
  <rect x="41" y="74" width="12" height="12" rx="2.16" ry="2.16" fill="#ffe500" />
  <rect x="53" y="74" width="12" height="12" rx="2.16" ry="2.16" fill="#ffe500" />
  <rect x="5" y="86" width="12" height="12" rx="2.16" ry="2.16" fill="#ffe500" />
  <rect x="53" y="86" width="12" height="12" rx="2.16" ry="2.16" fill="#ffe500" />
  <rect x="5" y="98" width="12" height="12" rx="2.16" ry="2.16" fill="#ffe500" />
  <rect x="53" y="98" width="12" height="12" rx="2.16" ry="2.16" fill="#ffe500" />
  <rect x="5" y="110" width="12" height="12" rx="2.16" ry="2.16" fill="#ffe500" />
  <rect x="53" y="110" width="12" height="12" rx="2.16" ry="2.16" fill="#ffe500" />
  <rect x="71" y="38" width="12" height="12" rx="2.16" ry="2.16" fill="#ffe500" />
  <rect x="119" y="38" width="12" height="12" rx="2.16" ry="2.16" fill="#ffe500" />
  <rect x="71" y="50" width="12" height="12" rx="2.16" ry="2.16" fill="#ffe500" />
  <rect x="107" y="50" width="12" height="12" rx="2.16" ry="2.16" fill="#ffe500" />
  <rect x="71" y="62" width="12" height="12" rx="2.16" ry="2.16" fill="#ffe500" />
  <rect x="95" y="62" width="12" height="12" rx="2.16" ry="2.16" fill="#ffe500" />
  <rect x="71" y="74" width="12" height="12" rx="2.16" ry="2.16" fill="#ffe500" />
  <rect x="83" y="74" width="12" height="12" rx="2.16" ry="2.16" fill="#ffe500" />
  <rect x="71" y="86" width="12" height="12" rx="2.16" ry="2.16" fill="#ffe500" />
  <rect x="95" y="86" width="12" height="12" rx="2.16" ry="2.16" fill="#ffe500" />
  <rect x="71" y="98" width="12" height="12" rx="2.16" ry="2.16" fill="#ffe500" />
  <rect x="107" y="98" width="12" height="12" rx="2.16" ry="2.16" fill="#ffe500" />
  <rect x="71" y="110" width="12" height="12" rx="2.16" ry="2.16" fill="#ffe500" />
  <rect x="119" y="110" width="12" height="12" rx="2.16" ry="2.16" fill="#ffe500" />
  <rect x="137" y="38" width="12" height="12" rx="2.16" ry="2.16" fill="#ffe500" />
  <rect x="149" y="38" width="12" height="12" rx="2.16" ry="2.16" fill="#ffe500" />
  <rect x="161" y="38" width="12" height="12" rx="2.16" ry="2.16" fill="#ffe500" />
  <rect x="173" y="38" width="12" height="12" rx="2.16" ry="2.16" fill="#ffe500" />
  <rect x="185" y="38" width="12" height="12" rx="2.16" ry="2.16" fill="#ffe500" />
  <rect x="161" y="50" width="12" height="12" rx="2.16" ry="2.16" fill="#ffe500" />
  <rect x="161" y="62" width="12" height="12" rx="2.16" ry="2.16" fill="#ffe500" />
  <rect x="161" y="74" width="12" height="12" rx="2.16" ry="2.16" fill="#ffe500" />
  <rect x="161" y="86" width="12" height="12" rx="2.16" ry="2.16" fill="#ffe500" />
  <rect x="161" y="98" width="12" height="12" rx="2.16" ry="2.16" fill="#ffe500" />
  <rect x="161" y="110" width="12" height="12" rx="2.16" ry="2.16" fill="#ffe500" />
  <rect x="215" y="38" width="12" height="12" rx="2.16" ry="2.16" fill="#ffe500" />
  <rect x="227" y="38" width="12" height="12" rx="2.16" ry="2.16" fill="#ffe500" />
  <rect x="239" y="38" width="12" height="12" rx="2.16" ry="2.16" fill="#ffe500" />
  <rect x="203" y="50" width="12" height="12" rx="2.16" ry="2.16" fill="#ffe500" />
  <rect x="251" y="50" width="12" height="12" rx="2.16" ry="2.16" fill="#ffe500" />
  <rect x="203" y="62" width="12" height="12" rx="2.16" ry="2.16" fill="#ffe500" />
  <rect x="251" y="62" width="12" height="12" rx="2.16" ry="2.16" fill="#ffe500" />
  <rect x="203" y="74" width="12" height="12" rx="2.16" ry="2.16" fill="#ffe500" />
  <rect x="251" y="74" width="12" height="12" rx="2.16" ry="2.16" fill="#ffe500" />
  <rect x="203" y="86" width="12" height="12" rx="2.16" ry="2.16" fill="#ffe500" />
  <rect x="251" y="86" width="12" height="12" rx="2.16" ry="2.16" fill="#ffe500" />
  <rect x="203" y="98" width="12" height="12" rx="2.16" ry="2.16" fill="#ffe500" />
  <rect x="251" y="98" width="12" height="12" rx="2.16" ry="2.16" fill="#ffe500" />
  <rect x="215" y="110" width="12" height="12" rx="2.16" ry="2.16" fill="#ffe500" />
  <rect x="227" y="110" width="12" height="12" rx="2.16" ry="2.16" fill="#ffe500" />
  <rect x="239" y="110" width="12" height="12" rx="2.16" ry="2.16" fill="#ffe500" />
  <rect x="269" y="38" width="12" height="12" rx="2.16" ry="2.16" fill="#ffe500" />
  <rect x="317" y="38" width="12" height="12" rx="2.16" ry="2.16" fill="#ffe500" />
  <rect x="269" y="50" width="12" height="12" rx="2.16" ry="2.16" fill="#ffe500" />
  <rect x="281" y="50" width="12" height="12" rx="2.16" ry="2.16" fill="#ffe500" />
  <rect x="317" y="50" width="12" height="12" rx="2.16" ry="2.16" fill="#ffe500" />
  <rect x="269" y="62" width="12" height="12" rx="2.16" ry="2.16" fill="#ffe500" />
  <rect x="293" y="62" width="12" height="12" rx="2.16" ry="2.16" fill="#ffe500" />
  <rect x="317" y="62" width="12" height="12" rx="2.16" ry="2.16" fill="#ffe500" />
  <rect x="269" y="74" width="12" height="12" rx="2.16" ry="2.16" fill="#ffe500" />
  <rect x="305" y="74" width="12" height="12" rx="2.16" ry="2.16" fill="#ffe500" />
  <rect x="317" y="74" width="12" height="12" rx="2.16" ry="2.16" fill="#ffe500" />
  <rect x="269" y="86" width="12" height="12" rx="2.16" ry="2.16" fill="#ffe500" />
  <rect x="317" y="86" width="12" height="12" rx="2.16" ry="2.16" fill="#ffe500" />
  <rect x="269" y="98" width="12" height="12" rx="2.16" ry="2.16" fill="#ffe500" />
  <rect x="317" y="98" width="12" height="12" rx="2.16" ry="2.16" fill="#ffe500" />
  <rect x="269" y="110" width="12" height="12" rx="2.16" ry="2.16" fill="#ffe500" />
  <rect x="317" y="110" width="12" height="12" rx="2.16" ry="2.16" fill="#ffe500" />
  <rect x="335" y="38" width="12" height="12" rx="2.16" ry="2.16" fill="#ffe500" />
  <rect x="347" y="38" width="12" height="12" rx="2.16" ry="2.16" fill="#ffe500" />
  <rect x="359" y="38" width="12" height="12" rx="2.16" ry="2.16" fill="#ffe500" />
  <rect x="371" y="38" width="12" height="12" rx="2.16" ry="2.16" fill="#ffe500" />
  <rect x="383" y="38" width="12" height="12" rx="2.16" ry="2.16" fill="#ffe500" />
  <rect x="383" y="50" width="12" height="12" rx="2.16" ry="2.16" fill="#ffe500" />
  <rect x="371" y="62" width="12" height="12" rx="2.16" ry="2.16" fill="#ffe500" />
  <rect x="359" y="74" width="12" height="12" rx="2.16" ry="2.16" fill="#ffe500" />
  <rect x="347" y="86" width="12" height="12" rx="2.16" ry="2.16" fill="#ffe500" />
  <rect x="335" y="98" width="12" height="12" rx="2.16" ry="2.16" fill="#ffe500" />
  <rect x="335" y="110" width="12" height="12" rx="2.16" ry="2.16" fill="#ffe500" />
  <rect x="347" y="110" width="12" height="12" rx="2.16" ry="2.16" fill="#ffe500" />
  <rect x="359" y="110" width="12" height="12" rx="2.16" ry="2.16" fill="#ffe500" />
  <rect x="371" y="110" width="12" height="12" rx="2.16" ry="2.16" fill="#ffe500" />
  <rect x="383" y="110" width="12" height="12" rx="2.16" ry="2.16" fill="#ffe500" />
</svg>
